<mxfile host="app.diagrams.net" modified="2024-05-24T09:46:56.855Z" agent="Mozilla/5.0 (Windows NT 10.0; Win64; x64) AppleWebKit/537.36 (KHTML, like Gecko) Chrome/125.0.0.0 Safari/537.36" etag="I0wNHm7x0xP99CsTq0AJ" version="24.4.7" type="github">
  <diagram name="第 1 页" id="kueszwBSntC_VvVxJ77s">
    <mxGraphModel dx="1195" dy="622" grid="1" gridSize="10" guides="1" tooltips="1" connect="1" arrows="1" fold="1" page="1" pageScale="1" pageWidth="1169" pageHeight="827" math="0" shadow="0">
      <root>
        <mxCell id="0" />
        <mxCell id="1" parent="0" />
        <mxCell id="CdosDJnHABeClEE82WGj-1" value="" style="shape=cube;whiteSpace=wrap;html=1;boundedLbl=1;backgroundOutline=1;darkOpacity=0.05;darkOpacity2=0.1;fillColor=#dae8fc;strokeColor=#6c8ebf;flipH=1;" vertex="1" parent="1">
          <mxGeometry x="20" y="230" width="150" height="162.5" as="geometry" />
        </mxCell>
        <mxCell id="CdosDJnHABeClEE82WGj-13" value="" style="shape=cube;whiteSpace=wrap;html=1;boundedLbl=1;backgroundOutline=1;darkOpacity=0.05;darkOpacity2=0.1;flipH=1;size=40;fillColor=#6a00ff;fontColor=#ffffff;strokeColor=#3700CC;" vertex="1" parent="1">
          <mxGeometry x="260" y="230" width="50" height="162.5" as="geometry" />
        </mxCell>
        <mxCell id="CdosDJnHABeClEE82WGj-14" value="" style="shape=cube;whiteSpace=wrap;html=1;boundedLbl=1;backgroundOutline=1;darkOpacity=0.05;darkOpacity2=0.1;flipH=1;size=40;fillColor=#a20025;fontColor=#ffffff;strokeColor=#6F0000;" vertex="1" parent="1">
          <mxGeometry x="270" y="230" width="50" height="162.5" as="geometry" />
        </mxCell>
        <mxCell id="CdosDJnHABeClEE82WGj-15" value="" style="endArrow=classic;html=1;rounded=0;strokeWidth=2;" edge="1" parent="1">
          <mxGeometry width="50" height="50" relative="1" as="geometry">
            <mxPoint x="180" y="320" as="sourcePoint" />
            <mxPoint x="250" y="320" as="targetPoint" />
          </mxGeometry>
        </mxCell>
        <mxCell id="CdosDJnHABeClEE82WGj-16" value="" style="shape=cube;whiteSpace=wrap;html=1;boundedLbl=1;backgroundOutline=1;darkOpacity=0.05;darkOpacity2=0.1;flipH=1;size=10;fillColor=none;" vertex="1" parent="1">
          <mxGeometry x="290" y="290.63" width="20" height="41.25" as="geometry" />
        </mxCell>
        <mxCell id="CdosDJnHABeClEE82WGj-18" value="" style="shape=cube;whiteSpace=wrap;html=1;boundedLbl=1;backgroundOutline=1;darkOpacity=0.05;darkOpacity2=0.1;flipH=1;size=40;" vertex="1" parent="1">
          <mxGeometry x="410" y="230" width="50" height="162.5" as="geometry" />
        </mxCell>
        <mxCell id="CdosDJnHABeClEE82WGj-19" value="" style="shape=cube;whiteSpace=wrap;html=1;boundedLbl=1;backgroundOutline=1;darkOpacity=0.05;darkOpacity2=0.1;flipH=1;size=10;fillColor=none;" vertex="1" parent="1">
          <mxGeometry x="430" y="300.63" width="20" height="31.25" as="geometry" />
        </mxCell>
        <mxCell id="CdosDJnHABeClEE82WGj-20" value="" style="endArrow=none;html=1;rounded=0;entryX=0;entryY=0;entryDx=20;entryDy=10;entryPerimeter=0;" edge="1" parent="1" target="CdosDJnHABeClEE82WGj-19">
          <mxGeometry width="50" height="50" relative="1" as="geometry">
            <mxPoint x="300" y="300" as="sourcePoint" />
            <mxPoint x="350" y="250" as="targetPoint" />
          </mxGeometry>
        </mxCell>
        <mxCell id="CdosDJnHABeClEE82WGj-21" value="" style="endArrow=none;html=1;rounded=0;entryX=0;entryY=0;entryDx=10;entryDy=0;entryPerimeter=0;exitX=0;exitY=0;exitDx=0;exitDy=0;exitPerimeter=0;" edge="1" parent="1" source="CdosDJnHABeClEE82WGj-16" target="CdosDJnHABeClEE82WGj-19">
          <mxGeometry width="50" height="50" relative="1" as="geometry">
            <mxPoint x="310" y="310" as="sourcePoint" />
            <mxPoint x="440" y="321" as="targetPoint" />
          </mxGeometry>
        </mxCell>
        <mxCell id="CdosDJnHABeClEE82WGj-22" value="" style="endArrow=none;html=1;rounded=0;entryX=1;entryY=1;entryDx=0;entryDy=0;entryPerimeter=0;exitX=0;exitY=0;exitDx=10;exitDy=41.25;exitPerimeter=0;" edge="1" parent="1" source="CdosDJnHABeClEE82WGj-16" target="CdosDJnHABeClEE82WGj-19">
          <mxGeometry width="50" height="50" relative="1" as="geometry">
            <mxPoint x="320" y="320" as="sourcePoint" />
            <mxPoint x="450" y="331" as="targetPoint" />
          </mxGeometry>
        </mxCell>
        <mxCell id="CdosDJnHABeClEE82WGj-23" value="" style="endArrow=classic;html=1;rounded=0;strokeWidth=2;" edge="1" parent="1">
          <mxGeometry width="50" height="50" relative="1" as="geometry">
            <mxPoint x="470" y="320" as="sourcePoint" />
            <mxPoint x="540" y="320" as="targetPoint" />
          </mxGeometry>
        </mxCell>
        <mxCell id="CdosDJnHABeClEE82WGj-24" value="" style="shape=image;verticalLabelPosition=bottom;labelBackgroundColor=default;verticalAlign=top;aspect=fixed;imageAspect=0;image=data:image/png,iVBORw0KGgoAAAANSUhEUgAAACYAAAAmCAIAAAAnX375AAAJNUlEQVRYCcWWeUwT3RbAmbYz0zKWHUFApAa1uARQREAUFBEqLgGj4hKDoqYKCiguIEjEBUwVt7hbFePKIiAIGARksUAEY9hkE0rBB5SyWAotdDrzovO90lf4il/eH+/8dXp7zvndc+69Z44W/g9FLpdLJBKRSCQUCnt7ewcHB6VS6T+KofUn1gqFQiaTDQwMCIXC5ubmT58+JScnP3/+/NWrVzk5OV++fOnq6hKJRENDQ2NjY1MG/CNkf39/fn7+sWPHVq9ebW1tPX36dMP/iLGxsYWFxaJFi7Zs2XL79u26ujoURTVTp0AKBILExMTdu3cvW7bM0tKSTqdTKBSt/xYAACAIMjIysrGx8fb2joiIKCkp0VDtyZEYho2MjBQWFkZFRa1YsUJPTw8AAARBFixYsHbt2p07dwYHB4eFhYWEhOzbt8/Pz8/V1dXMzAyGYQiCrKys/P39uVxuS0vLpHWeBIlhWF9fX15e3q5du2bMmEGhUAwNDZcuXbpt27b4+Pi0tLTKysrOzk6hUNjd3d3Y2FhYWJiYmBgaGurt7W1tba2trU2hUOzt7TkcTm1trVwuV6vzJEiJRPL+/ftVq1bBMAyCoJmZ2ebNm7OyssRiMYZhav6qP+vr6y9cuLBkyRIEQQAAsLCwiIqKEggEal6TIDMyMlgsFgzDAADY2dlduXKFz+ePjIyoearCCH1sbGxgYKCoqCggIIBOp5PJZAaDERYWJpFIFAqF0l4dWVVVxWazDQwMIAhydHTkcrl8Pn9icZT+agqGYWKxuLKyMigoyNLSEoIge3v7u3fv/vz5U2k5jlQoFGKx+OzZszY2NlQqlclk3r9/v7Ozc8rkcBzHMEwmk/348ePbt2/V1dU1NTWlpaUBAQFmZmY6Ojru7u5lZWUSiYSgjiNlMhmPx3NzcwNB0MrKKjw8vK+vTzNPoVCIRKKampr8/PykpKSEhITIyMiTJ09yOJzBwcHMzMxNmzbBMIwgSGxsbEtLizqyv7//xIkTs2bNolKpGzZs+P79u+Z6yuXy7u7u1NTUPXv2zJ49GwRB4rnSaDR7e/vOzk6pVHrz5k1LS0viAufl5REn+leWKIq2tbXZ2tpSqdSFCxfGx8dr5qEo2traymazGQwGgiAUCgUAAAIJw/D8+fM7OjowDPv06dPevXu1tLQgCLpx44ZQKMRx/C9kX19fRkaGiYkJiUTaunVraWmp8rQnKgqFoqen5+DBgwwGAwRBXV1dJyenAwcOxMXFPX78OC0traCgYGRkBMfx3t5eLpdLpVIBANi/f395efk4srW19eLFizo6OjAMnzp1qq+vbyJJuSIWiz9+/Dh37lwQBOfNm8dms1+9elVeXs7n83/+/KlaHhRFP378OGfOHBAEV69enZKSMo6srq7es2ePtra2qanpjRs3lNEnVdrb2zkcjr6+PgRBAQEBX79+ndSMWPz69eumTZsQBJk7d+7t27d/IYk7yePx3N3dYRh2cHB4/vy5hhA4jldXV+/YsQNBEFNT04SEBM3Gzc3N4eHhenp6dDo9Njb2F3JoaAjH8eLi4sWLF4Mg6OnpmZGRoTlKWVnZsmXLYBh2cXF5+fKlZmOBQHDp0iVDQ0MymRwZGfkL2d/fj+N4UVGRnZ0dCILe3t6ZmZmaoxQUFJibm5PJZF9f39zcXM3GHR0dV65cMTIyIpFIERERv5DE1SopKXF0dIQgyN3dPTU1VUOUkZGR5ORkGo0GAACbza6oqNBgjOM4n88/d+4c0UGjoqJ+IQmHiooKFotFpVIXLVr05MkTDVHa2tri4uKIJ3j+/PnW1lYNxjiONzY2Hjp0SFdX18jIKD4+fhxZV1cXHByMIIi+vj6Hw1EOE9hvQVFULpdLpdLBwcG0tLSNGzcCAADD8IsXL4giaaBWVVV5eHjQaDRbW9uHDx+OIwUCwfXr13V1dUkkUlhYWHd3NxFlbGxMLBZ3d3c3NTVlZ2efOXPGxcWFRqNBEOTs7FxcXKy5CaMo+uHDB1NTUzKZvG7durdv344jh4aGioqKZsyYQSKRWCwW8R+O4zk5OSEhIZ6enu7u7g4ODgwGg06nwzDMZDKfPXum3NnfZcnn8zkcDgRBAAAcPXq0urp6HImiaHt7u5eXl56enpWV1YkTJyQSCYZhjx49cnFxUY5X2tra1tbWfn5+t27d6urqUm00E6kKhSI7O3v9+vUkEsnIyOjRo0cDAwPjSBzHxWLx1atXmUwmBEFubm6FhYUymSwrK2v//v2Ojo7Ozs4eHh7+/v4xMTG5ublSqVRzSXEc7+joiImJMTExgSDIy8uLx+MR2xr/Xsrl8ubmZh8fHyqVamxsvHXrVv5vKS8vz8vLKy0tFQgEGkZF1SwxDJNKpVwu19XVlUjxzp07nZ2d6kgcx+Vy+f37952cnEgkkrGx8enTpxsaGkZHR6VSqUwmQ1F0ysyIoKOjo3l5eZ6enjQazcDAwNfXt62tTfkKxrMkrNvb26Ojo83NzSkUCoPBiIiIqKysVB2WVLOZVBeJROnp6WvXrjUwMKDRaCtXrszPz1d9S+pIhUJRVlZ25MgRExMTMpnMZDLZbPabN2+6urqU25yUhOP48PBwVVVVQkICi8VCEIRGo7m5ud27d29oaEh10+pIHMdHR0c/f/4cGBg4a9YsGIb19fU9PDxu3rxZUFDQ0NDQ09MzPDysrPDY2Njg4KBAIKiqqkpJSTl8+DCTyQQAYNq0aa6urnfu3Ont7VXb4iRI4lDb29uDgoLmzZtHtFMQBG1tbUNDQ58+fcrj8QQCwb9+S319fU5OzrVr13x9fYlnTaFQ9PX1ly9fnpSUNOmnfnIkjuMoivb3979+/Xrjxo3a2toAAIAgSKfTDQwMTExMZs6caW1tbWVlZWZmZmxsrKenR6PRyGQyiUSaPXv2yZMn6+vr1SZmZa5/iyQshEJhRUXFgwcPAgMDbWxsEAQh2gIAAASAmLJIJJKhoeGaNWuio6Pfvn3b1NQ0OjqqLL4SRihTIIl0RSIRj8fjcrmxsbHBwcHbt2/38fHx8vJisVi+vr4BAQHHjx+/fPlyenp6Y2Oj6uVUg/0pUtVNJpN1dHRUVFS8e/cuIyMjMzOzoKCgtrZ2YGBA9U6qukzUp85yos//uPJ/QP4bEwKbfUb/Zo4AAAAASUVORK5CYII=;" vertex="1" parent="1">
          <mxGeometry x="540" y="300.63" width="38" height="38" as="geometry" />
        </mxCell>
        <mxCell id="CdosDJnHABeClEE82WGj-25" value="" style="endArrow=classic;html=1;rounded=0;strokeWidth=2;" edge="1" parent="1">
          <mxGeometry width="50" height="50" relative="1" as="geometry">
            <mxPoint x="585" y="319.21" as="sourcePoint" />
            <mxPoint x="655" y="319.21" as="targetPoint" />
          </mxGeometry>
        </mxCell>
        <mxCell id="CdosDJnHABeClEE82WGj-26" value="" style="shape=cube;whiteSpace=wrap;html=1;boundedLbl=1;backgroundOutline=1;darkOpacity=0.05;darkOpacity2=0.1;flipH=1;size=40;fillColor=#008a00;fontColor=#ffffff;strokeColor=#005700;" vertex="1" parent="1">
          <mxGeometry x="670" y="230" width="50" height="162.5" as="geometry" />
        </mxCell>
        <mxCell id="CdosDJnHABeClEE82WGj-27" value="&lt;font style=&quot;font-size: 14px;&quot;&gt;&lt;b&gt;通道注意力输出的特征图&lt;/b&gt;&lt;/font&gt;" style="text;html=1;align=center;verticalAlign=middle;resizable=0;points=[];autosize=1;strokeColor=none;fillColor=none;" vertex="1" parent="1">
          <mxGeometry x="5" y="399" width="180" height="30" as="geometry" />
        </mxCell>
        <mxCell id="CdosDJnHABeClEE82WGj-29" value="&lt;font style=&quot;font-size: 14px;&quot;&gt;&lt;b&gt;[最大池化、平均池化]&lt;/b&gt;&lt;/font&gt;" style="text;html=1;align=center;verticalAlign=middle;resizable=0;points=[];autosize=1;strokeColor=none;fillColor=none;" vertex="1" parent="1">
          <mxGeometry x="190" y="398" width="160" height="30" as="geometry" />
        </mxCell>
        <mxCell id="CdosDJnHABeClEE82WGj-30" value="&lt;span style=&quot;font-size: 14px;&quot;&gt;&lt;b&gt;卷积层&lt;/b&gt;&lt;/span&gt;" style="text;html=1;align=center;verticalAlign=middle;resizable=0;points=[];autosize=1;strokeColor=none;fillColor=none;" vertex="1" parent="1">
          <mxGeometry x="335" y="260.63" width="70" height="30" as="geometry" />
        </mxCell>
        <mxCell id="CdosDJnHABeClEE82WGj-31" value="&lt;span style=&quot;font-size: 14px;&quot;&gt;&lt;b&gt;空间注意力输出特征图&lt;/b&gt;&lt;/span&gt;" style="text;html=1;align=center;verticalAlign=middle;resizable=0;points=[];autosize=1;strokeColor=none;fillColor=none;" vertex="1" parent="1">
          <mxGeometry x="590" y="399" width="160" height="30" as="geometry" />
        </mxCell>
        <mxCell id="CdosDJnHABeClEE82WGj-32" value="&lt;span style=&quot;font-size: 14px;&quot;&gt;&lt;b&gt;Sigmoid&lt;/b&gt;&lt;/span&gt;" style="text;html=1;align=center;verticalAlign=middle;resizable=0;points=[];autosize=1;strokeColor=none;fillColor=none;" vertex="1" parent="1">
          <mxGeometry x="519" y="260.63" width="80" height="30" as="geometry" />
        </mxCell>
      </root>
    </mxGraphModel>
  </diagram>
</mxfile>
